# xmcd
#
# Track frame offsets: 
#        150
#        16155
#        31667
#        48867
#        63614
#        78056
#        96626
#        116218
#        135256
#        151994
#        170003
#        186896
#
# Disc length: 2695 seconds
#
# Revision: 1
# Processed by: cddbd v1.5.2PL0 Copyright (c) Steve Scherf et al.
# Submitted via: ExactAudioCopyFreeDBPlugin 1.0
#
DISCID=930a850c
DTITLE=SheDaisy - Fortuneteller's Melody
DYEAR=2006
DGENRE=Country
TTITLE0=23 Days
TTITLE1=Whatever It Takes
TTITLE2=Bring It On Back
TTITLE3=I'm Taking The Wheel
TTITLE4=God Bless The American Housewife
TTITLE5=Kickin' In
TTITLE6=Healing Side
TTITLE7=What Do I Do Now
TTITLE8=In Terms Of Love
TTITLE9=Burn Down The House
TTITLE10=Out Of My Mind
TTITLE11=She Gets What I Deserve
EXTD=
EXTT0=
EXTT1=
EXTT2=
EXTT3=
EXTT4=
EXTT5=
EXTT6=
EXTT7=
EXTT8=
EXTT9=
EXTT10=
EXTT11=
PLAYORDER=
